# xmcd CD database file
#
# Track frame offsets:
#	150
#	17536
#	37840
#	60526
#	79634
#	103174
#	134819
#	159128
#	179138
#	202774
#
# Disc length: 2898 seconds
#
# Revision: 0
# Processed by: cddbd v1.5.2PL0 Copyright (c) Steve Scherf et al.
# Submitted via: CDex 1.70beta2
#
DISCID=790b500a
DTITLE=Pierrick Pédron - Omry
DYEAR=2009
DGENRE=Jazz
TTITLE0=Mama Oum
TTITLE1=Val André
TTITLE2=Omry part 3
TTITLE3=Omry part 1
TTITLE4=Omry part 2
TTITLE5=Omry part 4
TTITLE6=Osman
TTITLE7=Moogoo
TTITLE8=Enta Echams
TTITLE9=Es-Saïf
EXTD=YEAR: 2009
EXTT0=
EXTT1=
EXTT2=
EXTT3=
EXTT4=
EXTT5=
EXTT6=
EXTT7=
EXTT8=
EXTT9=
PLAYORDER=
